<svg width="230" height="38" viewBox="0 0 230 38" fill="none" xmlns="http://www.w3.org/2000/svg">
<rect width="38" height="38" rx="5" fill="#EFEEF3"/>
<path d="M19.0078 13.8739C16.1685 13.8739 13.8783 16.1641 13.8783 19.0033C13.8783 21.8426 16.1685 24.1328 19.0078 24.1328C21.8471 24.1328 24.1373 21.8426 24.1373 19.0033C24.1373 16.1641 21.8471 13.8739 19.0078 13.8739ZM19.0078 22.3382C17.173 22.3382 15.673 20.8426 15.673 19.0033C15.673 17.1641 17.1685 15.6685 19.0078 15.6685C20.8471 15.6685 22.3426 17.1641 22.3426 19.0033C22.3426 20.8426 20.8426 22.3382 19.0078 22.3382ZM25.5435 13.6641C25.5435 14.3292 25.0078 14.8605 24.3471 14.8605C23.6819 14.8605 23.1506 14.3248 23.1506 13.6641C23.1506 13.0033 23.6864 12.4676 24.3471 12.4676C25.0078 12.4676 25.5435 13.0033 25.5435 13.6641ZM28.9408 14.8783C28.8649 13.2757 28.4989 11.856 27.3247 10.6864C26.1551 9.51674 24.7355 9.15067 23.1328 9.07031C21.481 8.97656 16.5301 8.97656 14.8783 9.07031C13.2801 9.14621 11.8605 9.51228 10.6864 10.6819C9.51228 11.8516 9.15067 13.2712 9.07031 14.8739C8.97656 16.5257 8.97656 21.4766 9.07031 23.1283C9.14621 24.731 9.51228 26.1507 10.6864 27.3203C11.8605 28.49 13.2757 28.856 14.8783 28.9364C16.5301 29.0301 21.481 29.0301 23.1328 28.9364C24.7355 28.8605 26.1551 28.4944 27.3247 27.3203C28.4944 26.1507 28.8605 24.731 28.9408 23.1283C29.0346 21.4766 29.0346 16.5301 28.9408 14.8783ZM26.8069 24.9007C26.4587 25.7757 25.7846 26.4498 24.9051 26.8025C23.5881 27.3248 20.4632 27.2042 19.0078 27.2042C17.5524 27.2042 14.423 27.3203 13.1105 26.8025C12.2355 26.4542 11.5614 25.7801 11.2087 24.9007C10.6864 23.5837 10.8069 20.4587 10.8069 19.0033C10.8069 17.548 10.6908 14.4185 11.2087 13.106C11.5569 12.231 12.231 11.5569 13.1105 11.2042C14.4274 10.6819 17.5524 10.8025 19.0078 10.8025C20.4632 10.8025 23.5926 10.6864 24.9051 11.2042C25.7801 11.5525 26.4542 12.2266 26.8069 13.106C27.3292 14.423 27.2087 17.548 27.2087 19.0033C27.2087 20.4587 27.3292 23.5882 26.8069 24.9007Z" fill="#0D0D0D"/>
<rect x="48" width="38" height="38" rx="5" fill="#EFEEF3"/>
<path d="M71.3447 20.5025L71.8632 17.1235H68.621V14.9307C68.621 14.0063 69.0739 13.1052 70.526 13.1052H72V10.2283C72 10.2283 70.6624 10 69.3835 10C66.7134 10 64.9681 11.6184 64.9681 14.5482V17.1235H62V20.5025H64.9681V28.6711H68.621V20.5025H71.3447Z" fill="#0D0D0D"/>
<rect x="96" width="38" height="38" rx="5" fill="#EFEEF3"/>
<path d="M111.69 24.7016C111.69 24.7823 111.597 24.8468 111.48 24.8468C111.347 24.8589 111.254 24.7944 111.254 24.7016C111.254 24.621 111.347 24.5565 111.464 24.5565C111.585 24.5444 111.69 24.6089 111.69 24.7016ZM110.435 24.5202C110.407 24.6008 110.488 24.6935 110.609 24.7177C110.714 24.7581 110.835 24.7177 110.859 24.6371C110.883 24.5565 110.806 24.4637 110.685 24.4274C110.581 24.3992 110.464 24.4395 110.435 24.5202ZM112.218 24.4516C112.101 24.4798 112.02 24.5565 112.032 24.6492C112.044 24.7298 112.149 24.7823 112.27 24.754C112.387 24.7258 112.468 24.6492 112.456 24.5685C112.444 24.4919 112.335 24.4395 112.218 24.4516ZM114.871 9C109.278 9 105 13.246 105 18.8387C105 23.3105 107.815 27.1371 111.835 28.4839C112.351 28.5766 112.532 28.2581 112.532 27.996C112.532 27.746 112.52 26.3669 112.52 25.5202C112.52 25.5202 109.698 26.125 109.105 24.3185C109.105 24.3185 108.645 23.1452 107.984 22.8427C107.984 22.8427 107.06 22.2097 108.048 22.2218C108.048 22.2218 109.052 22.3024 109.605 23.2621C110.488 24.8185 111.968 24.371 112.544 24.1048C112.637 23.4597 112.899 23.0121 113.19 22.746C110.935 22.496 108.661 22.1694 108.661 18.2903C108.661 17.1815 108.968 16.625 109.613 15.9153C109.508 15.6532 109.165 14.5726 109.718 13.1774C110.56 12.9153 112.5 14.2661 112.5 14.2661C113.306 14.0403 114.173 13.9234 115.032 13.9234C115.891 13.9234 116.758 14.0403 117.565 14.2661C117.565 14.2661 119.504 12.9113 120.347 13.1774C120.899 14.5766 120.556 15.6532 120.452 15.9153C121.097 16.629 121.492 17.1855 121.492 18.2903C121.492 22.1815 119.117 22.4919 116.863 22.746C117.234 23.0645 117.548 23.6694 117.548 24.6169C117.548 25.9758 117.536 27.6573 117.536 27.9879C117.536 28.25 117.722 28.5685 118.234 28.4758C122.266 27.1371 125 23.3105 125 18.8387C125 13.246 120.464 9 114.871 9ZM108.919 22.9073C108.867 22.9476 108.879 23.0403 108.948 23.1169C109.012 23.1815 109.105 23.2097 109.157 23.1573C109.21 23.1169 109.198 23.0242 109.129 22.9476C109.065 22.8831 108.972 22.8548 108.919 22.9073ZM108.484 22.5806C108.456 22.6331 108.496 22.6976 108.577 22.7379C108.641 22.7782 108.722 22.7661 108.75 22.7097C108.778 22.6573 108.738 22.5927 108.657 22.5524C108.577 22.5282 108.512 22.5403 108.484 22.5806ZM109.79 24.0161C109.726 24.0685 109.75 24.1895 109.843 24.2661C109.935 24.3589 110.052 24.371 110.105 24.3065C110.157 24.254 110.133 24.1331 110.052 24.0565C109.964 23.9637 109.843 23.9516 109.79 24.0161ZM109.331 23.4234C109.266 23.4637 109.266 23.5685 109.331 23.6613C109.395 23.754 109.504 23.7944 109.556 23.754C109.621 23.7016 109.621 23.5968 109.556 23.504C109.5 23.4113 109.395 23.371 109.331 23.4234Z" fill="#0D0D0D"/>
<rect x="144" width="38" height="38" rx="5" fill="#EFEEF3"/>
<path d="M162.688 9C157.346 9 153 13.3458 153 18.6875C153 24.0292 157.346 28.375 162.688 28.375C168.029 28.375 172.375 24.0292 172.375 18.6875C172.375 13.3458 168.029 9 162.688 9ZM169.093 13.4674C170.245 14.8755 170.943 16.6689 170.961 18.6219C170.688 18.5642 167.953 18.0093 165.199 18.3556C164.975 17.8071 164.763 17.3246 164.472 16.73C167.532 15.4809 168.918 13.7034 169.093 13.4674ZM168.173 12.5105C168.024 12.7225 166.778 14.3967 163.836 15.4996C162.48 13.0083 160.977 10.9618 160.748 10.6555C163.373 10.023 166.138 10.7051 168.173 12.5105ZM159.17 11.2117C159.388 11.5109 160.866 13.56 162.237 15.9972C158.367 17.0251 154.958 17.0103 154.588 17.0054C155.124 14.4377 156.855 12.3036 159.17 11.2117ZM154.413 18.7001C154.413 18.6155 154.415 18.5313 154.417 18.4473C154.779 18.4547 158.789 18.5064 162.921 17.2697C163.158 17.7333 163.384 18.2039 163.592 18.6739C160.6 19.5167 157.881 21.9367 156.54 24.2328C155.219 22.7658 154.413 20.8254 154.413 18.7001ZM157.608 25.228C158.473 23.4611 160.819 21.1802 164.155 20.0422C165.316 23.0611 165.797 25.5911 165.92 26.3171C163.259 27.4504 160.06 27.1395 157.608 25.228ZM167.311 25.5596C167.226 25.0562 166.786 22.6339 165.703 19.6598C168.296 19.2448 170.574 19.9242 170.858 20.0136C170.489 22.3159 169.167 24.3043 167.311 25.5596Z" fill="#0D0D0D"/>
<rect x="192" width="38" height="38" rx="5" fill="#EFEEF3"/>
<path d="M218.944 15.0482C218.957 15.2259 218.957 15.4036 218.957 15.5812C218.957 21 214.833 27.2436 207.294 27.2436C204.972 27.2436 202.815 26.571 201 25.4036C201.33 25.4416 201.647 25.4543 201.99 25.4543C203.906 25.4543 205.67 24.8071 207.079 23.703C205.277 23.665 203.766 22.4848 203.246 20.8604C203.5 20.8984 203.754 20.9238 204.02 20.9238C204.388 20.9238 204.756 20.873 205.099 20.7843C203.221 20.4035 201.812 18.7538 201.812 16.7614V16.7107C202.358 17.0152 202.992 17.2056 203.665 17.2309C202.561 16.4949 201.838 15.2386 201.838 13.8172C201.838 13.0558 202.041 12.3579 202.396 11.7487C204.414 14.236 207.447 15.8604 210.848 16.038C210.784 15.7335 210.746 15.4163 210.746 15.099C210.746 12.8401 212.574 11 214.845 11C216.025 11 217.091 11.4949 217.84 12.2944C218.766 12.1168 219.655 11.7741 220.442 11.3046C220.137 12.2564 219.49 13.0559 218.64 13.5634C219.464 13.4746 220.264 13.2462 221 12.9289C220.442 13.7411 219.744 14.4644 218.944 15.0482Z" fill="#3DB370"/>
</svg>
