<svg width="450" height="20" viewBox="0 0 450 20" fill="none" xmlns="http://www.w3.org/2000/svg">
<line y1="9.5" x2="210" y2="9.5" stroke="#FFCC00"/>
<line x1="240" y1="9.5" x2="450" y2="9.5" stroke="#FFCC00"/>
<path d="M222.808 13.125L222.212 12.9055C221.74 12.6906 221.315 12.3842 220.962 12.0039C220.418 11.4219 219.818 10.4137 220.049 8.91367C220.252 7.59609 221.776 6.01484 222.758 5.09063C223.822 4.08984 225.336 2.51836 225.264 1.21758L225.234 0.625H225.827C227.833 0.625 230 2.09453 230 4.46914C230 6.24922 229.141 7.50078 227.308 8.64492C226.996 8.84023 226.666 9.02227 226.315 9.2125C225.119 9.86172 223.374 11.159 222.966 12.5453L222.808 13.125ZM222.078 4.43711C222.852 3.71094 223.551 3.05273 223.891 2.33555C223.82 2.2918 223.745 2.25156 223.669 2.21484C223.205 1.99258 222.649 1.88906 221.92 1.88906H221.259L221.28 2.5332C221.299 3.08242 221.044 3.4125 220.721 3.83047C220.383 4.26797 220 4.76328 220 5.50781C220 5.90742 220.05 6.24062 220.164 6.5375C220.255 6.39922 220.354 6.26081 220.461 6.12227C220.937 5.50781 221.518 4.96289 222.078 4.43711Z" fill="#FFCC00"/>
<path d="M227.904 9.36914C227.54 9.59961 227.162 9.8043 226.761 10.0219C225.486 10.7129 224.282 11.3672 223.901 12.6562L223.877 12.7344C224.44 12.9914 225.051 13.1246 225.669 13.125C226.828 13.125 227.913 12.6902 228.725 11.9C229.131 11.5065 229.453 11.0349 229.672 10.5138C229.891 9.99259 230.003 9.43251 230 8.86719C229.997 8.45402 229.923 8.04442 229.782 7.65625C229.338 8.28828 228.721 8.85078 227.904 9.36914ZM225.497 14.0625H224.503C224.467 14.0625 224.432 14.0751 224.404 14.098C224.376 14.1209 224.357 14.1528 224.35 14.1883L223.359 19.1883C223.355 19.2109 223.355 19.2343 223.361 19.2567C223.367 19.2791 223.377 19.3 223.392 19.3178C223.406 19.3357 223.425 19.3501 223.446 19.36C223.467 19.3698 223.489 19.375 223.512 19.375H226.491C226.514 19.375 226.537 19.3698 226.558 19.36C226.579 19.3501 226.597 19.3357 226.612 19.3178C226.627 19.3 226.637 19.2791 226.643 19.2567C226.648 19.2343 226.649 19.2109 226.645 19.1883L225.652 14.1883C225.645 14.1525 225.625 14.1204 225.597 14.0974C225.569 14.0744 225.533 14.0621 225.497 14.0625ZM227.722 13.8406L227.278 14.2844C227.253 14.3099 227.237 14.3435 227.233 14.3795C227.23 14.4155 227.239 14.4516 227.259 14.4816L229.582 17.9664C229.594 17.9857 229.611 18.0018 229.631 18.0138C229.651 18.0257 229.673 18.033 229.696 18.0353C229.719 18.0376 229.743 18.0347 229.764 18.0269C229.786 18.0191 229.806 18.0066 229.822 17.9902L231.428 16.3848C231.444 16.3684 231.457 16.3486 231.464 16.3269C231.472 16.3051 231.475 16.2818 231.473 16.2588C231.471 16.2358 231.463 16.2136 231.451 16.1937C231.439 16.1739 231.423 16.157 231.404 16.1441L227.919 13.8211C227.889 13.801 227.853 13.792 227.817 13.7956C227.781 13.7991 227.747 13.8151 227.722 13.8406ZM230.156 13.125C230.115 13.125 230.075 13.1415 230.046 13.1708C230.016 13.2001 230 13.2398 230 13.2812V13.6176C230 13.6546 230.013 13.6904 230.037 13.7187C230.061 13.7469 230.094 13.7658 230.13 13.7719L233.568 14.3445C233.59 14.3483 233.613 14.3471 233.635 14.3411C233.657 14.3351 233.677 14.3244 233.695 14.3097C233.712 14.2951 233.726 14.2769 233.735 14.2563C233.745 14.2357 233.75 14.2133 233.75 14.1906V13.2812C233.75 13.2398 233.734 13.2001 233.704 13.1708C233.675 13.1415 233.635 13.125 233.594 13.125H230.156ZM222.278 13.8406L222.722 14.2844C222.747 14.3099 222.763 14.3435 222.767 14.3795C222.77 14.4155 222.761 14.4516 222.741 14.4816L220.418 17.9664C220.406 17.9857 220.389 18.0018 220.369 18.0138C220.349 18.0257 220.327 18.033 220.304 18.0353C220.281 18.0376 220.257 18.0347 220.236 18.0269C220.214 18.0191 220.194 18.0066 220.178 17.9902L218.572 16.3848C218.556 16.3684 218.543 16.3486 218.536 16.3269C218.528 16.3051 218.525 16.2818 218.527 16.2588C218.529 16.2358 218.537 16.2136 218.549 16.1937C218.561 16.1739 218.577 16.157 218.596 16.1441L222.081 13.8211C222.111 13.801 222.147 13.792 222.183 13.7956C222.219 13.7991 222.253 13.8151 222.278 13.8406ZM219.844 13.125H216.406C216.365 13.125 216.325 13.1415 216.296 13.1708C216.266 13.2001 216.25 13.2398 216.25 13.2812V14.1906C216.25 14.2133 216.255 14.2357 216.265 14.2563C216.274 14.2769 216.288 14.2951 216.305 14.3097C216.323 14.3244 216.343 14.3351 216.365 14.3411C216.387 14.3471 216.41 14.3483 216.432 14.3445L219.87 13.7719C219.906 13.7658 219.939 13.7469 219.963 13.7187C219.987 13.6904 220 13.6546 220 13.6176V13.2812C220 13.2398 219.984 13.2001 219.954 13.1708C219.925 13.1415 219.885 13.125 219.844 13.125Z" fill="#FFCC00"/>
</svg>
